<svg id="Calque_1" data-name="Calque 1" xmlns="http://www.w3.org/2000/svg" viewBox="0 0 69.52 69.52"><defs><style>.cls-1{fill:#7d3ad6;}.cls-2{fill:#fff;}</style></defs><circle class="cls-1" cx="34.76" cy="34.76" r="34.76"/><path class="cls-2" d="M49.64,25.36c4.34,3.08,8.3,9.4,7.8,15.54A17.67,17.67,0,0,1,40,57C22.8,57,17.11,35.24,29.9,25.17c3.79-3-1.55-8.26-5.3-5.3-18.68,14.7-7,46,16.8,44.57A25.2,25.2,0,0,0,64.67,43.27c1.47-9.67-3.45-18.85-11.25-24.39-3.94-2.8-7.69,3.7-3.78,6.48Z" transform="translate(-5.4 -5.35)"/><path class="cls-2" d="M35.77,16.48V31.62c0,4.82,7.5,4.83,7.5,0V16.48c0-4.82-7.5-4.83-7.5,0Z" transform="translate(-5.4 -5.35)"/></svg>